<?xml version="1.0" standalone="no"?>
<!DOCTYPE svg PUBLIC "-//W3C//DTD SVG 20010904//EN"
 "http://www.w3.org/TR/2001/REC-SVG-20010904/DTD/svg10.dtd">
<svg version="1.0" xmlns="http://www.w3.org/2000/svg"
 width="1280.000000pt" height="1280.000000pt" viewBox="0 0 1280.000000 1280.000000"
 preserveAspectRatio="xMidYMid meet">
<metadata>
Created by potrace 1.14, written by Peter Selinger 2001-2017
</metadata>
<g transform="translate(0.000000,1280.000000) scale(0.100000,-0.100000)"
fill="#000000" stroke="none">
<path d="M0 6400 l0 -6400 6400 0 6400 0 0 6400 0 6400 -6400 0 -6400 0 0
-6400z m3413 1776 c67 -16 116 -57 170 -140 29 -46 32 -58 35 -152 4 -93 2
-104 -17 -123 -22 -22 -57 -24 -404 -24 -74 -1 -78 -2 -73 -21 2 -12 8 -39 12
-61 9 -52 74 -129 125 -149 50 -20 131 -20 195 -1 98 30 138 15 118 -43 -14
-41 -68 -66 -159 -73 -163 -14 -269 19 -348 107 -63 71 -92 183 -82 324 11
153 58 256 140 308 96 61 176 74 288 48z m1833 -11 c50 -21 78 -47 122 -115
30 -47 36 -67 43 -140 17 -172 23 -168 -264 -172 l-227 -3 0 -25 c1 -76 52
-163 117 -197 44 -24 141 -28 205 -9 87 25 140 19 134 -14 -12 -71 -59 -96
-191 -102 -160 -8 -252 24 -329 113 -55 65 -71 129 -71 289 1 168 19 223 99
304 74 74 137 97 242 92 45 -3 99 -12 120 -21z m-1235 -15 c11 -14 27 -56 38
-95 10 -38 33 -119 51 -180 17 -60 34 -119 37 -130 30 -111 56 -185 63 -185 5
0 14 19 20 43 6 23 17 62 24 87 8 25 19 65 26 90 6 25 21 72 32 105 11 33 25
78 31 100 44 167 67 200 130 188 45 -9 50 -52 16 -148 -15 -44 -59 -181 -99
-305 -87 -271 -96 -295 -123 -308 -47 -23 -82 -24 -110 -1 -43 33 -68 92 -137
319 -12 41 -42 129 -65 195 -53 148 -64 215 -39 239 25 25 82 17 105 -14z
m2089 -2 c17 -28 17 -34 5 -58 -16 -31 -25 -36 -89 -45 -61 -9 -100 -43 -115
-97 -7 -26 -13 -137 -14 -279 -2 -265 -3 -269 -68 -269 -34 0 -41 4 -51 28 -7
17 -12 143 -15 342 -5 368 -2 393 58 398 43 4 57 -11 67 -67 l7 -41 35 47 c36
49 77 71 133 72 20 1 32 -7 47 -31z m379 8 c5 -6 30 -76 55 -156 26 -80 60
-185 77 -235 17 -49 35 -106 39 -125 11 -48 33 -100 42 -100 4 0 10 17 13 38
4 20 19 80 34 132 16 52 41 142 56 200 32 122 60 206 81 238 17 25 60 30 89 8
26 -19 16 -98 -29 -234 -60 -184 -106 -337 -106 -355 0 -10 -8 -34 -19 -55
-10 -20 -24 -64 -31 -97 -27 -131 -92 -221 -182 -251 -59 -19 -133 -23 -149
-7 -6 6 -9 25 -7 43 3 32 6 34 78 56 57 17 82 31 103 56 28 34 37 88 14 88
-28 0 -55 42 -81 126 -15 49 -36 112 -46 139 -9 28 -26 77 -37 110 -23 67 -33
97 -58 170 -53 154 -56 208 -13 224 26 9 64 3 77 -13z"/>
<path d="M3241 8144 c0 -11 3 -14 6 -6 3 7 2 16 -1 19 -3 4 -6 -2 -5 -13z"/>
<path d="M3432 8124 c-11 -12 -10 -15 2 -20 9 -3 16 -12 16 -20 0 -8 9 -14 20
-14 13 0 18 5 14 15 -4 8 -10 15 -15 15 -5 0 -9 9 -9 20 0 23 -10 25 -28 4z"/>
<path d="M3174 8116 c-18 -14 -18 -15 0 -22 11 -4 21 -2 27 7 19 31 5 38 -27
15z"/>
<path d="M3125 8111 c-3 -5 -1 -12 5 -16 5 -3 10 1 10 9 0 18 -6 21 -15 7z"/>
<path d="M3097 8073 c-4 -3 -7 -12 -7 -20 0 -15 26 -18 34 -4 7 11 -18 33 -27
24z"/>
<path d="M3240 8066 c-57 -21 -120 -129 -120 -208 0 -16 6 -28 13 -28 6 0 66
-1 132 -3 193 -5 221 8 211 102 -11 121 -114 181 -236 137z"/>
<path d="M3510 8030 c0 -5 5 -10 11 -10 5 0 7 5 4 10 -3 6 -8 10 -11 10 -2 0
-4 -4 -4 -10z"/>
<path d="M3050 8015 c0 -2 9 -9 19 -14 14 -8 22 -7 31 4 11 13 8 15 -19 15
-17 0 -31 -2 -31 -5z"/>
<path d="M3043 7961 c-7 -10 -9 -22 -6 -25 13 -12 21 -5 21 19 0 30 0 30 -15
6z"/>
<path d="M3550 7955 c0 -8 5 -15 10 -15 6 0 10 7 10 15 0 8 -4 15 -10 15 -5 0
-10 -7 -10 -15z"/>
<path d="M3080 7810 c0 -5 5 -10 10 -10 6 0 10 5 10 10 0 6 -4 10 -10 10 -5 0
-10 -4 -10 -10z"/>
<path d="M3100 7792 c0 -5 7 -13 16 -16 10 -4 14 -1 12 6 -5 15 -28 23 -28 10z"/>
<path d="M3030 7775 c0 -9 5 -15 11 -13 6 2 11 8 11 13 0 5 -5 11 -11 13 -6 2
-11 -4 -11 -13z"/>
<path d="M3010 7720 c-12 -8 -12 -10 2 -15 20 -8 41 2 33 16 -8 11 -16 11 -35
-1z"/>
<path d="M3080 7610 c0 -5 5 -10 10 -10 6 0 10 5 10 10 0 6 -4 10 -10 10 -5 0
-10 -4 -10 -10z"/>
<path d="M5030 8144 c0 -8 5 -12 10 -9 6 3 10 10 10 16 0 5 -4 9 -10 9 -5 0
-10 -7 -10 -16z"/>
<path d="M5226 8125 c-9 -23 -8 -25 9 -25 8 0 15 -7 15 -15 0 -8 7 -15 15 -15
18 0 19 12 3 29 -7 6 -13 17 -13 23 0 18 -22 20 -29 3z"/>
<path d="M4965 8117 c-13 -10 -15 -16 -6 -21 17 -11 41 0 41 19 0 19 -11 19
-35 2z"/>
<path d="M4920 8105 c0 -8 5 -15 10 -15 6 0 10 7 10 15 0 8 -4 15 -10 15 -5 0
-10 -7 -10 -15z"/>
<path d="M4883 8065 c-3 -9 -3 -18 0 -22 9 -8 57 6 57 17 0 5 -7 7 -15 4 -8
-4 -15 -1 -15 5 0 17 -20 13 -27 -4z"/>
<path d="M5033 8067 c-35 -13 -60 -42 -90 -102 -23 -46 -36 -122 -21 -131 5
-3 76 -6 158 -7 135 -1 151 0 170 18 19 17 21 28 18 80 -4 72 -32 118 -85 140
-42 18 -105 18 -150 2z"/>
<path d="M5290 8017 c-12 -21 -12 -21 6 -7 10 8 20 15 22 16 2 1 -1 4 -5 7 -5
3 -15 -4 -23 -16z"/>
<path d="M4850 8011 c0 -16 28 -20 47 -6 17 13 16 14 -14 15 -18 0 -33 -4 -33
-9z"/>
<path d="M4842 7973 c-16 -30 -15 -43 4 -43 13 0 14 3 5 14 -9 11 -9 15 0 18
7 2 10 11 7 18 -3 11 -8 10 -16 -7z"/>
<path d="M5340 7961 c0 -6 5 -13 10 -16 6 -3 10 1 10 9 0 9 -4 16 -10 16 -5 0
-10 -4 -10 -9z"/>
<path d="M4810 7860 c0 -5 5 -10 10 -10 6 0 10 5 10 10 0 6 -4 10 -10 10 -5 0
-10 -4 -10 -10z"/>
<path d="M4845 7860 c-3 -5 -1 -10 4 -10 6 0 11 5 11 10 0 6 -2 10 -4 10 -3 0
-8 -4 -11 -10z"/>
<path d="M4890 7795 c13 -14 25 -25 27 -25 9 0 1 20 -13 34 -26 26 -39 18 -14
-9z"/>
<path d="M4825 7779 c-10 -15 1 -23 20 -15 9 3 13 10 10 16 -8 13 -22 13 -30
-1z"/>
<path d="M4875 7780 c-3 -5 -1 -10 4 -10 6 0 11 5 11 10 0 6 -2 10 -4 10 -3 0
-8 -4 -11 -10z"/>
<path d="M4875 7750 c-3 -5 -1 -10 4 -10 6 0 11 5 11 10 0 6 -2 10 -4 10 -3 0
-8 -4 -11 -10z"/>
<path d="M4807 7723 c-13 -12 -7 -23 13 -23 11 0 20 7 20 15 0 15 -21 21 -33
8z"/>
<path d="M4860 7639 c0 -5 5 -7 10 -4 6 3 10 8 10 11 0 2 -4 4 -10 4 -5 0 -10
-5 -10 -11z"/>
<path d="M4875 7610 c-3 -5 -1 -10 4 -10 6 0 11 5 11 10 0 6 -2 10 -4 10 -3 0
-8 -4 -11 -10z"/>
<path d="M4920 7529 c0 -5 5 -7 10 -4 6 3 10 8 10 11 0 2 -4 4 -10 4 -5 0 -10
-5 -10 -11z"/>
<path d="M4444 8152 c-15 -10 -25 -42 -18 -54 7 -10 44 24 44 41 0 14 -14 21
-26 13z"/>
<path d="M3949 8135 c-1 -3 -2 -9 -3 -14 0 -5 -4 -13 -8 -17 -17 -17 -8 -36
14 -31 12 4 28 1 35 -5 17 -14 16 -5 -1 37 -13 30 -33 46 -37 30z"/>
<path d="M3944 8049 c-3 -6 -2 -14 3 -18 6 -3 12 -13 15 -21 3 -8 6 0 5 18 0
32 -10 41 -23 21z"/>
<path d="M4362 7996 c-15 -27 -18 -42 -10 -45 6 -2 17 4 23 13 7 9 18 16 25
16 7 0 10 7 6 15 -3 8 -1 15 4 15 18 0 11 18 -9 23 -14 3 -24 -6 -39 -37z"/>
<path d="M4395 7961 c-3 -5 -1 -12 5 -16 5 -3 10 1 10 9 0 18 -6 21 -15 7z"/>
<path d="M4005 7900 c-3 -5 -1 -10 4 -10 6 0 11 5 11 10 0 6 -2 10 -4 10 -3 0
-8 -4 -11 -10z"/>
<path d="M4315 7820 c-3 -5 -1 -10 4 -10 6 0 11 5 11 10 0 6 -2 10 -4 10 -3 0
-8 -4 -11 -10z"/>
<path d="M4305 7781 c-3 -5 -1 -12 5 -16 12 -7 30 2 30 16 0 12 -27 12 -35 0z"/>
<path d="M4072 7638 c6 -18 28 -21 28 -4 0 9 -7 16 -16 16 -9 0 -14 -5 -12
-12z"/>
<path d="M4095 7570 c-3 -5 -1 -10 4 -10 6 0 11 5 11 10 0 6 -2 10 -4 10 -3 0
-8 -4 -11 -10z"/>
<path d="M6035 8120 c-3 -5 -1 -10 4 -10 6 0 11 5 11 10 0 6 -2 10 -4 10 -3 0
-8 -4 -11 -10z"/>
<path d="M5790 8100 c8 -14 18 -20 30 -17 12 3 20 -2 23 -14 7 -28 27 -23 27
7 0 14 -4 23 -9 20 -5 -4 -11 -2 -13 3 -1 5 -18 12 -36 16 -32 7 -33 6 -22
-15z"/>
<path d="M5803 8054 c-7 -19 16 -64 32 -64 13 0 45 32 45 44 0 4 -9 2 -20 -4
-17 -9 -20 -7 -26 15 -7 28 -22 33 -31 9z"/>
<path d="M5800 7955 c0 -10 7 -15 18 -13 21 4 19 22 -2 26 -10 2 -16 -3 -16
-13z"/>
<path d="M5809 7874 c11 -8 26 -12 31 -9 19 12 10 22 -21 23 -31 1 -31 0 -10
-14z"/>
<path d="M5830 7810 c0 -5 5 -10 10 -10 6 0 10 5 10 10 0 6 -4 10 -10 10 -5 0
-10 -4 -10 -10z"/>
<path d="M5790 7780 c0 -5 7 -10 15 -10 8 0 15 5 15 10 0 6 -7 10 -15 10 -8 0
-15 -4 -15 -10z"/>
<path d="M5786 7731 c-4 -5 -3 -16 0 -25 6 -15 8 -15 20 1 7 10 14 21 14 26 0
10 -28 9 -34 -2z"/>
<path d="M5815 7690 c-3 -5 1 -10 10 -10 9 0 13 5 10 10 -3 6 -8 10 -10 10 -2
0 -7 -4 -10 -10z"/>
<path d="M6435 8140 c-4 -7 -3 -16 3 -22 14 -14 45 -2 40 15 -6 16 -34 21 -43
7z"/>
<path d="M6892 8129 c2 -6 8 -10 13 -10 5 0 11 4 13 10 2 6 -4 11 -13 11 -9 0
-15 -5 -13 -11z"/>
<path d="M6930 8110 c0 -5 5 -10 11 -10 5 0 7 5 4 10 -3 6 -8 10 -11 10 -2 0
-4 -4 -4 -10z"/>
<path d="M6410 8090 c0 -5 4 -10 9 -10 5 0 17 -7 25 -16 9 -8 16 -11 16 -5 0
12 -28 41 -41 41 -5 0 -9 -4 -9 -10z"/>
<path d="M6914 8063 c2 -16 6 -27 10 -25 3 1 13 2 21 2 8 0 15 5 15 10 0 6 -7
10 -15 10 -8 0 -15 7 -15 15 0 8 -4 15 -9 15 -5 0 -8 -12 -7 -27z"/>
<path d="M6415 8060 c-3 -5 -1 -10 4 -10 6 0 11 5 11 10 0 6 -2 10 -4 10 -3 0
-8 -4 -11 -10z"/>
<path d="M6440 8033 c0 -5 5 -15 10 -23 8 -12 10 -11 10 8 0 12 -4 22 -10 22
-5 0 -10 -3 -10 -7z"/>
<path d="M6866 8022 c-3 -6 -1 -14 5 -17 15 -10 25 3 12 16 -7 7 -13 7 -17 1z"/>
<path d="M6470 7996 c0 -9 30 -14 35 -6 4 6 -3 10 -14 10 -12 0 -21 -2 -21 -4z"/>
<path d="M6460 7946 c0 -9 5 -16 10 -16 6 0 10 4 10 9 0 6 -4 13 -10 16 -5 3
-10 -1 -10 -9z"/>
<path d="M6886 7931 c-4 -7 -5 -15 -2 -18 9 -9 19 4 14 18 -4 11 -6 11 -12 0z"/>
<path d="M6495 7920 c-3 -5 -1 -10 4 -10 6 0 11 5 11 10 0 6 -2 10 -4 10 -3 0
-8 -4 -11 -10z"/>
<path d="M6835 7920 c-3 -5 3 -10 15 -10 12 0 18 5 15 10 -3 6 -10 10 -15 10
-5 0 -12 -4 -15 -10z"/>
<path d="M6505 7890 c3 -5 10 -10 16 -10 5 0 9 5 9 10 0 6 -7 10 -16 10 -8 0
-12 -4 -9 -10z"/>
<path d="M6820 7890 c0 -5 4 -10 10 -10 5 0 13 -12 16 -26 4 -17 10 -22 17
-15 6 6 4 15 -7 26 -9 9 -16 21 -16 26 0 5 -4 9 -10 9 -5 0 -10 -4 -10 -10z"/>
<path d="M6500 7845 c7 -8 19 -15 26 -15 8 0 11 6 8 15 -4 8 -15 15 -26 15
-17 0 -18 -3 -8 -15z"/>
<path d="M6545 7790 c3 -5 8 -10 11 -10 2 0 4 5 4 10 0 6 -5 10 -11 10 -5 0
-7 -4 -4 -10z"/>
<path d="M6542 7759 c2 -7 10 -15 17 -17 8 -3 12 1 9 9 -2 7 -10 15 -17 17 -8
3 -12 -1 -9 -9z"/>
<path d="M6820 7755 c0 -8 5 -15 10 -15 6 0 10 7 10 15 0 8 -4 15 -10 15 -5 0
-10 -7 -10 -15z"/>
<path d="M6560 7700 c12 -22 55 -28 47 -7 -2 6 -12 11 -21 11 -9 -1 -16 2 -16
7 0 5 -5 9 -10 9 -7 0 -7 -6 0 -20z"/>
<path d="M6570 7640 c0 -5 5 -10 11 -10 5 0 7 5 4 10 -3 6 -8 10 -11 10 -2 0
-4 -4 -4 -10z"/>
<path d="M6582 7599 c2 -6 8 -10 13 -10 5 0 11 4 13 10 2 6 -4 11 -13 11 -9 0
-15 -5 -13 -11z"/>
<path d="M6725 7531 c-3 -6 -11 -9 -16 -6 -5 4 -9 1 -9 -4 0 -6 10 -9 23 -7
20 3 25 11 14 22 -3 3 -8 0 -12 -5z"/>
<path d="M6600 7519 c0 -15 15 -17 33 -4 16 11 15 13 -8 13 -14 0 -25 -4 -25
-9z"/>
<path d="M6664 7509 c-3 -6 -1 -16 5 -22 8 -8 11 -5 11 11 0 24 -5 28 -16 11z"/>
<path d="M6680 7450 c0 -5 5 -10 11 -10 5 0 7 5 4 10 -3 6 -8 10 -11 10 -2 0
-4 -4 -4 -10z"/>
</g>
</svg>
